<mxfile host="app.diagrams.net" modified="2021-09-10T15:51:32.678Z" agent="5.0 (Windows NT 10.0; Win64; x64) AppleWebKit/537.36 (KHTML, like Gecko) Chrome/93.0.4577.63 Safari/537.36" etag="nP2oTPmj9omy--JfuLwW" version="15.1.4" type="github">
  <diagram id="ZdmGk6IPYKaeDIPPrwFB" name="Page-1">
    <mxGraphModel dx="1422" dy="762" grid="1" gridSize="10" guides="1" tooltips="1" connect="1" arrows="1" fold="1" page="1" pageScale="1" pageWidth="850" pageHeight="1100" math="0" shadow="0">
      <root>
        <mxCell id="0" />
        <mxCell id="1" parent="0" />
        <mxCell id="_0Pd_bxFQzBcdaT3m3x4-1" value="Start" style="ellipse;whiteSpace=wrap;html=1;" parent="1" vertex="1">
          <mxGeometry x="360" y="10" width="120" height="80" as="geometry" />
        </mxCell>
        <mxCell id="_0Pd_bxFQzBcdaT3m3x4-2" value="check for open orders" style="rounded=0;whiteSpace=wrap;html=1;" parent="1" vertex="1">
          <mxGeometry x="360" y="210" width="120" height="60" as="geometry" />
        </mxCell>
        <mxCell id="_0Pd_bxFQzBcdaT3m3x4-3" value="Order Manager" style="swimlane;startSize=0;align=left;spacingTop=19;glass=0;spacingLeft=4;" parent="1" vertex="1">
          <mxGeometry x="120" y="300" width="600" height="440" as="geometry" />
        </mxCell>
        <mxCell id="_0Pd_bxFQzBcdaT3m3x4-6" value="order[i]: condition &lt;br&gt;to trade?" style="rhombus;whiteSpace=wrap;html=1;" parent="_0Pd_bxFQzBcdaT3m3x4-3" vertex="1">
          <mxGeometry x="20" y="40" width="150" height="90" as="geometry" />
        </mxCell>
        <mxCell id="_0Pd_bxFQzBcdaT3m3x4-7" value="send child order tx" style="rounded=0;whiteSpace=wrap;html=1;glass=0;align=center;" parent="_0Pd_bxFQzBcdaT3m3x4-3" vertex="1">
          <mxGeometry x="240" y="55" width="120" height="60" as="geometry" />
        </mxCell>
        <mxCell id="_0Pd_bxFQzBcdaT3m3x4-8" value="wait for tx (ethers.js)" style="rounded=0;whiteSpace=wrap;html=1;glass=0;align=center;" parent="_0Pd_bxFQzBcdaT3m3x4-3" vertex="1">
          <mxGeometry x="240" y="150" width="120" height="60" as="geometry" />
        </mxCell>
        <mxCell id="_0Pd_bxFQzBcdaT3m3x4-9" value="await 15&amp;nbsp; block confirmations" style="rounded=0;whiteSpace=wrap;html=1;glass=0;align=center;dashed=1;" parent="_0Pd_bxFQzBcdaT3m3x4-3" vertex="1">
          <mxGeometry x="460" y="55" width="120" height="60" as="geometry" />
        </mxCell>
        <mxCell id="_0Pd_bxFQzBcdaT3m3x4-10" value="update parent &lt;br&gt;order status" style="rounded=0;whiteSpace=wrap;html=1;glass=0;align=center;" parent="_0Pd_bxFQzBcdaT3m3x4-3" vertex="1">
          <mxGeometry x="240" y="250" width="120" height="60" as="geometry" />
        </mxCell>
        <mxCell id="_0Pd_bxFQzBcdaT3m3x4-12" value="end order[i] loop" style="rounded=0;whiteSpace=wrap;html=1;glass=0;align=center;" parent="_0Pd_bxFQzBcdaT3m3x4-3" vertex="1">
          <mxGeometry x="35" y="350" width="120" height="60" as="geometry" />
        </mxCell>
        <mxCell id="_0Pd_bxFQzBcdaT3m3x4-13" value="save order status" style="shape=cylinder3;whiteSpace=wrap;html=1;boundedLbl=1;backgroundOutline=1;size=15;glass=0;align=center;dashed=1;" parent="_0Pd_bxFQzBcdaT3m3x4-3" vertex="1">
          <mxGeometry x="460" y="245" width="120" height="70" as="geometry" />
        </mxCell>
        <mxCell id="_0Pd_bxFQzBcdaT3m3x4-14" value="" style="endArrow=classic;html=1;entryX=0;entryY=0.5;entryDx=0;entryDy=0;exitX=1;exitY=0.5;exitDx=0;exitDy=0;dashed=1;" parent="_0Pd_bxFQzBcdaT3m3x4-3" source="_0Pd_bxFQzBcdaT3m3x4-7" target="_0Pd_bxFQzBcdaT3m3x4-9" edge="1">
          <mxGeometry width="50" height="50" relative="1" as="geometry">
            <mxPoint x="370" y="90" as="sourcePoint" />
            <mxPoint x="420" y="40" as="targetPoint" />
          </mxGeometry>
        </mxCell>
        <mxCell id="_0Pd_bxFQzBcdaT3m3x4-17" value="" style="endArrow=classic;html=1;exitX=0.5;exitY=1;exitDx=0;exitDy=0;entryX=0.5;entryY=0;entryDx=0;entryDy=0;" parent="_0Pd_bxFQzBcdaT3m3x4-3" source="_0Pd_bxFQzBcdaT3m3x4-7" target="_0Pd_bxFQzBcdaT3m3x4-8" edge="1">
          <mxGeometry width="50" height="50" relative="1" as="geometry">
            <mxPoint x="280" y="180" as="sourcePoint" />
            <mxPoint x="410" y="160" as="targetPoint" />
          </mxGeometry>
        </mxCell>
        <mxCell id="_0Pd_bxFQzBcdaT3m3x4-18" value="pass" style="endArrow=classic;html=1;entryX=0.5;entryY=0;entryDx=0;entryDy=0;exitX=0.5;exitY=1;exitDx=0;exitDy=0;" parent="_0Pd_bxFQzBcdaT3m3x4-3" source="_0Pd_bxFQzBcdaT3m3x4-8" target="_0Pd_bxFQzBcdaT3m3x4-10" edge="1">
          <mxGeometry width="50" height="50" relative="1" as="geometry">
            <mxPoint x="280" y="180" as="sourcePoint" />
            <mxPoint x="330" y="130" as="targetPoint" />
          </mxGeometry>
        </mxCell>
        <mxCell id="_0Pd_bxFQzBcdaT3m3x4-19" value="" style="endArrow=classic;html=1;entryX=0.5;entryY=0;entryDx=0;entryDy=0;exitX=0.5;exitY=1;exitDx=0;exitDy=0;" parent="_0Pd_bxFQzBcdaT3m3x4-3" source="_0Pd_bxFQzBcdaT3m3x4-10" target="_0Pd_bxFQzBcdaT3m3x4-45" edge="1">
          <mxGeometry width="50" height="50" relative="1" as="geometry">
            <mxPoint x="280" y="180" as="sourcePoint" />
            <mxPoint x="300" y="340" as="targetPoint" />
          </mxGeometry>
        </mxCell>
        <mxCell id="_0Pd_bxFQzBcdaT3m3x4-20" value="" style="endArrow=classic;html=1;entryX=0;entryY=0.5;entryDx=0;entryDy=0;entryPerimeter=0;exitX=1;exitY=0.5;exitDx=0;exitDy=0;dashed=1;" parent="_0Pd_bxFQzBcdaT3m3x4-3" source="_0Pd_bxFQzBcdaT3m3x4-10" target="_0Pd_bxFQzBcdaT3m3x4-13" edge="1">
          <mxGeometry width="50" height="50" relative="1" as="geometry">
            <mxPoint x="280" y="180" as="sourcePoint" />
            <mxPoint x="330" y="130" as="targetPoint" />
          </mxGeometry>
        </mxCell>
        <mxCell id="_0Pd_bxFQzBcdaT3m3x4-23" value="check for change &lt;br&gt;in tx response" style="rounded=0;whiteSpace=wrap;html=1;glass=0;align=center;" parent="_0Pd_bxFQzBcdaT3m3x4-3" vertex="1">
          <mxGeometry x="460" y="150" width="120" height="60" as="geometry" />
        </mxCell>
        <mxCell id="_0Pd_bxFQzBcdaT3m3x4-24" value="" style="endArrow=classic;html=1;entryX=0.5;entryY=0;entryDx=0;entryDy=0;exitX=0.5;exitY=1;exitDx=0;exitDy=0;dashed=1;" parent="_0Pd_bxFQzBcdaT3m3x4-3" source="_0Pd_bxFQzBcdaT3m3x4-9" target="_0Pd_bxFQzBcdaT3m3x4-23" edge="1">
          <mxGeometry width="50" height="50" relative="1" as="geometry">
            <mxPoint x="280" y="180" as="sourcePoint" />
            <mxPoint x="330" y="130" as="targetPoint" />
          </mxGeometry>
        </mxCell>
        <mxCell id="_0Pd_bxFQzBcdaT3m3x4-25" value="" style="endArrow=classic;html=1;exitX=0.5;exitY=1;exitDx=0;exitDy=0;dashed=1;" parent="_0Pd_bxFQzBcdaT3m3x4-3" source="_0Pd_bxFQzBcdaT3m3x4-23" edge="1">
          <mxGeometry width="50" height="50" relative="1" as="geometry">
            <mxPoint x="530" y="125" as="sourcePoint" />
            <mxPoint x="520" y="240" as="targetPoint" />
          </mxGeometry>
        </mxCell>
        <mxCell id="_0Pd_bxFQzBcdaT3m3x4-26" value="yes" style="endArrow=classic;html=1;exitX=1;exitY=0.5;exitDx=0;exitDy=0;entryX=0;entryY=0.5;entryDx=0;entryDy=0;spacingTop=-12;" parent="_0Pd_bxFQzBcdaT3m3x4-3" source="_0Pd_bxFQzBcdaT3m3x4-6" target="_0Pd_bxFQzBcdaT3m3x4-7" edge="1">
          <mxGeometry width="50" height="50" relative="1" as="geometry">
            <mxPoint x="280" y="180" as="sourcePoint" />
            <mxPoint x="330" y="130" as="targetPoint" />
          </mxGeometry>
        </mxCell>
        <mxCell id="_0Pd_bxFQzBcdaT3m3x4-27" value="no" style="endArrow=classic;html=1;entryX=0.5;entryY=0;entryDx=0;entryDy=0;exitX=0.5;exitY=1;exitDx=0;exitDy=0;" parent="_0Pd_bxFQzBcdaT3m3x4-3" source="_0Pd_bxFQzBcdaT3m3x4-6" target="_0Pd_bxFQzBcdaT3m3x4-12" edge="1">
          <mxGeometry width="50" height="50" relative="1" as="geometry">
            <mxPoint x="280" y="180" as="sourcePoint" />
            <mxPoint x="330" y="130" as="targetPoint" />
          </mxGeometry>
        </mxCell>
        <mxCell id="_0Pd_bxFQzBcdaT3m3x4-33" value="fail" style="endArrow=classic;html=1;entryX=0;entryY=0.5;entryDx=0;entryDy=0;exitX=0;exitY=0.5;exitDx=0;exitDy=0;edgeStyle=orthogonalEdgeStyle;" parent="_0Pd_bxFQzBcdaT3m3x4-3" source="_0Pd_bxFQzBcdaT3m3x4-8" target="_0Pd_bxFQzBcdaT3m3x4-7" edge="1">
          <mxGeometry width="50" height="50" relative="1" as="geometry">
            <mxPoint x="160" y="165" as="sourcePoint" />
            <mxPoint x="210" y="115" as="targetPoint" />
            <Array as="points">
              <mxPoint x="190" y="180" />
              <mxPoint x="190" y="85" />
            </Array>
          </mxGeometry>
        </mxCell>
        <mxCell id="_0Pd_bxFQzBcdaT3m3x4-45" value="calculate next trade condition" style="rounded=0;whiteSpace=wrap;html=1;glass=0;align=center;" parent="_0Pd_bxFQzBcdaT3m3x4-3" vertex="1">
          <mxGeometry x="240" y="350" width="120" height="60" as="geometry" />
        </mxCell>
        <mxCell id="_0Pd_bxFQzBcdaT3m3x4-47" value="" style="endArrow=classic;html=1;entryX=1;entryY=0.5;entryDx=0;entryDy=0;exitX=0;exitY=0.5;exitDx=0;exitDy=0;" parent="_0Pd_bxFQzBcdaT3m3x4-3" source="_0Pd_bxFQzBcdaT3m3x4-45" target="_0Pd_bxFQzBcdaT3m3x4-12" edge="1">
          <mxGeometry width="50" height="50" relative="1" as="geometry">
            <mxPoint x="280" y="370" as="sourcePoint" />
            <mxPoint x="330" y="320" as="targetPoint" />
          </mxGeometry>
        </mxCell>
        <mxCell id="_0Pd_bxFQzBcdaT3m3x4-34" value="" style="endArrow=classic;html=1;entryX=0.5;entryY=0;entryDx=0;entryDy=0;exitX=0.5;exitY=1;exitDx=0;exitDy=0;" parent="1" source="_0Pd_bxFQzBcdaT3m3x4-2" target="_0Pd_bxFQzBcdaT3m3x4-3" edge="1">
          <mxGeometry width="50" height="50" relative="1" as="geometry">
            <mxPoint x="400" y="490" as="sourcePoint" />
            <mxPoint x="450" y="440" as="targetPoint" />
          </mxGeometry>
        </mxCell>
        <mxCell id="_0Pd_bxFQzBcdaT3m3x4-35" value="trade prechecks (gas, collateral, margin)" style="rounded=0;whiteSpace=wrap;html=1;" parent="1" vertex="1">
          <mxGeometry x="360" y="120" width="120" height="60" as="geometry" />
        </mxCell>
        <mxCell id="_0Pd_bxFQzBcdaT3m3x4-36" value="" style="endArrow=classic;html=1;entryX=0.5;entryY=0;entryDx=0;entryDy=0;exitX=0.5;exitY=1;exitDx=0;exitDy=0;" parent="1" source="_0Pd_bxFQzBcdaT3m3x4-35" target="_0Pd_bxFQzBcdaT3m3x4-2" edge="1">
          <mxGeometry width="50" height="50" relative="1" as="geometry">
            <mxPoint x="400" y="390" as="sourcePoint" />
            <mxPoint x="450" y="340" as="targetPoint" />
          </mxGeometry>
        </mxCell>
        <mxCell id="_0Pd_bxFQzBcdaT3m3x4-37" value="" style="endArrow=classic;html=1;entryX=0.5;entryY=0;entryDx=0;entryDy=0;exitX=0.5;exitY=1;exitDx=0;exitDy=0;" parent="1" source="_0Pd_bxFQzBcdaT3m3x4-1" target="_0Pd_bxFQzBcdaT3m3x4-35" edge="1">
          <mxGeometry width="50" height="50" relative="1" as="geometry">
            <mxPoint x="400" y="390" as="sourcePoint" />
            <mxPoint x="450" y="340" as="targetPoint" />
          </mxGeometry>
        </mxCell>
        <mxCell id="_0Pd_bxFQzBcdaT3m3x4-49" value="" style="endArrow=classic;html=1;exitX=0.5;exitY=1;exitDx=0;exitDy=0;entryX=0.5;entryY=0;entryDx=0;entryDy=0;" parent="1" source="_0Pd_bxFQzBcdaT3m3x4-12" target="_0Pd_bxFQzBcdaT3m3x4-51" edge="1">
          <mxGeometry width="50" height="50" relative="1" as="geometry">
            <mxPoint x="400" y="670" as="sourcePoint" />
            <mxPoint x="215" y="820" as="targetPoint" />
          </mxGeometry>
        </mxCell>
        <mxCell id="_0Pd_bxFQzBcdaT3m3x4-51" value="top level update or something" style="rounded=0;whiteSpace=wrap;html=1;glass=0;align=center;" parent="1" vertex="1">
          <mxGeometry x="155" y="800" width="120" height="60" as="geometry" />
        </mxCell>
        <mxCell id="_0Pd_bxFQzBcdaT3m3x4-52" value="loop back&lt;br&gt;to start" style="endArrow=classic;html=1;entryX=0;entryY=0.5;entryDx=0;entryDy=0;exitX=0;exitY=0.5;exitDx=0;exitDy=0;edgeStyle=orthogonalEdgeStyle;" parent="1" source="_0Pd_bxFQzBcdaT3m3x4-51" target="_0Pd_bxFQzBcdaT3m3x4-35" edge="1">
          <mxGeometry width="50" height="50" relative="1" as="geometry">
            <mxPoint x="400" y="540" as="sourcePoint" />
            <mxPoint x="270" y="180" as="targetPoint" />
            <Array as="points">
              <mxPoint x="60" y="830" />
              <mxPoint x="60" y="150" />
            </Array>
          </mxGeometry>
        </mxCell>
      </root>
    </mxGraphModel>
  </diagram>
</mxfile>
